# xmcd CD database file
#
# Track frame offsets:
#	150
#	20619
#	41077
#
# Disc length: 837 seconds
#
# Revision: 0
# Processed by: cddbd v1.5.1PL0 Copyright (c) Steve Scherf et al.
# Submitted via: CDex 1.51
#
DISCID=1f034303
DTITLE=Carnation - 獣たち
DYEAR=2005
DGENRE=Rock
TTITLE0=獣たち
TTITLE1=獣たち （Instrumental）
TTITLE2=獣たち （Home Demo）
EXTD=YEAR: 2005
EXTT0=
EXTT1=
EXTT2=
PLAYORDER=
